<?xml version="1.0" encoding="UTF-8"?>
<svg width="12px" height="7px" viewBox="0 0 12 7" version="1.1" xmlns="http://www.w3.org/2000/svg" xmlns:xlink="http://www.w3.org/1999/xlink">
    <title>Path</title>
    <g id="Webdesign" stroke="none" stroke-width="1" fill="none" fill-rule="evenodd">
        <g id="Jak-reklamovat-Copy" transform="translate(-1320.000000, -470.000000)" fill="#2A2F33" fill-rule="nonzero">
            <g id="Vrchní-info" transform="translate(260.000000, 251.000000)">
                <g id="Group-9" transform="translate(300.000000, 185.000000)">
                    <path d="M768.837091,36.7079505 L764.292214,32.1631563 C764.187097,32.0579558 764.046774,32 763.897152,32 C763.74753,32 763.607207,32.0579558 763.502089,32.1631563 L763.167391,32.4977719 C762.9496,32.7158117 762.9496,33.0701888 763.167391,33.2878965 L766.983836,37.1043413 L763.163156,40.9250207 C763.058039,41.0302212 763,41.1704609 763,41.32 C763,41.4697052 763.058039,41.6099449 763.163156,41.7152284 L763.497855,42.049761 C763.603055,42.1549615 763.743295,42.2129172 763.892917,42.2129172 C764.042539,42.2129172 764.182862,42.1549615 764.28798,42.049761 L768.837091,37.5008152 C768.942458,37.3952825 769.000331,37.2543787 769,37.1045904 C769.000331,36.954221 768.942458,36.8134001 768.837091,36.7079505 Z" id="Path" transform="translate(766.000000, 37.106459) rotate(-270.000000) translate(-766.000000, -37.106459) "></path>
                </g>
            </g>
        </g>
    </g>
</svg>