<?xml version="1.0" encoding="UTF-8"?>
<svg width="35px" height="37px" viewBox="0 0 35 37" version="1.1" xmlns="http://www.w3.org/2000/svg" xmlns:xlink="http://www.w3.org/1999/xlink">
    <title>box (2)</title>
    <g id="Webdesign" stroke="none" stroke-width="1" fill="none" fill-rule="evenodd" opacity="0.965">
        <g id="Jak-reklamovat" transform="translate(-1268.000000, -438.000000)" fill="#FFFFFF">
            <g id="Vrchní-info" transform="translate(260.000000, 251.000000)">
                <g id="Group-9" transform="translate(716.000000, 171.000000)">
                    <g id="box-(2)" transform="translate(292.000000, 16.000000)">
                        <path d="M17.0678934,0 C17.3559591,0 17.6440247,0 17.9320904,0 C23.443219,2.29770549 28.9645019,4.5902258 34.4958671,6.87756812 C34.7713299,7.05675218 34.9273894,7.30880245 34.9639738,7.63374054 C35.0120087,14.8353826 35.0120087,22.0370246 34.9639738,29.2386666 C34.8123792,29.7743967 34.4642518,30.1224521 33.9197357,30.2829047 C28.5759013,32.4633458 23.2466862,34.6598466 17.9320904,36.8724071 C17.6440247,36.8724071 17.3559591,36.8724071 17.0678934,36.8724071 C11.5567648,34.5747232 6.03551073,32.2821525 0.504116741,29.994839 C0.228646733,29.8156621 0.0726087552,29.5636047 0.0360100105,29.2386666 C-0.0120033368,22.0370246 -0.0120033368,14.8353826 0.0360100105,7.63374054 C0.0726087552,7.30880245 0.228646733,7.05675218 0.504116741,6.87756812 C6.03551073,4.5902258 11.5567648,2.29770549 17.0678934,0 Z M17.4279755,2.44855829 C18.7496928,2.92941912 20.0459884,3.46954228 21.3168622,4.06892774 C17.0345498,5.97563448 12.737546,7.82407993 8.42592296,9.61419209 C7.03362951,9.03806073 5.64128565,8.46192937 4.24897059,7.88579801 C8.65788785,6.09261795 13.0508895,4.28020951 17.4279755,2.44855829 Z M24.3415518,5.32921509 C26.4908099,6.13945023 28.627321,6.99164934 30.7510132,7.88579801 C26.3418799,9.71832783 21.9248248,11.5307651 17.4999919,13.3230377 C15.5389848,12.5534703 13.5945414,11.7493349 11.6666619,10.9104877 C15.9065566,9.06621915 20.1315439,7.20579016 24.3415518,5.32921509 Z M2.37654367,9.72221672 C4.05507358,10.4172472 5.73545432,11.1134299 7.41769308,11.8106929 C7.47768275,13.898737 7.51369096,15.9872132 7.52571771,18.0761215 C7.80816611,18.8594441 8.34828926,19.135555 9.14608716,18.9043103 C9.50098408,18.7655346 9.72898806,18.5134772 9.83024315,18.1481379 C9.84226989,16.3712767 9.8782781,14.5948477 9.93826778,12.8189228 C12.026744,13.6831198 14.1152202,14.5473169 16.2036963,15.4115139 C16.2877395,21.5808005 16.2996942,27.7501592 16.2397045,33.9197339 C11.6467853,32.016556 7.04976119,30.1201476 2.44856009,28.2304367 C2.37654367,22.0612221 2.35254059,15.8917914 2.37654367,9.72221672 Z M32.5514237,9.72221672 C32.6473496,15.8796927 32.6473496,22.0491233 32.5514237,28.2304367 C27.9502226,30.1201476 23.3531985,32.016556 18.7602793,33.9197339 C18.7002896,27.7501592 18.7122443,21.5808005 18.7962875,15.4115139 C23.3943919,13.5272763 27.9793893,11.6308679 32.5514237,9.72221672 Z" id="Shape"></path>
                    </g>
                </g>
            </g>
        </g>
    </g>
</svg>