<?xml version="1.0" encoding="UTF-8"?>
<svg width="30px" height="23px" viewBox="0 0 30 23" version="1.1" xmlns="http://www.w3.org/2000/svg" xmlns:xlink="http://www.w3.org/1999/xlink">
    <title>Combined Shape</title>
    <defs>
        <linearGradient x1="1.1090472%" y1="22.7609051%" x2="99.3689904%" y2="77.5054286%" id="linearGradient-1">
            <stop stop-color="#AFB9C2" offset="0%"></stop>
            <stop stop-color="#7C858C" offset="100%"></stop>
        </linearGradient>
        <linearGradient x1="1.59527972%" y1="23.0318046%" x2="100%" y2="77.8569892%" id="linearGradient-2">
            <stop stop-color="#505961" offset="0%"></stop>
            <stop stop-color="#2A2F33" offset="100%"></stop>
        </linearGradient>
        <path d="M772.503906,677.375 L780.549766,677.375 L775.178711,670.50002 L772.503906,670.50002 L772.503906,677.375 Z M773.81248,684.767539 C775.365781,684.767539 776.62498,686.026738 776.62498,687.580039 C776.62498,689.13334 775.365781,690.392539 773.81248,690.392539 C772.25918,690.392539 770.99998,689.13334 770.99998,687.580039 C770.99998,686.026738 772.25918,684.767539 773.81248,684.767539 Z M781,679.132812 L781,687.257773 L778.370137,687.257773 C778.204082,684.887656 776.224082,683.009727 773.81248,683.009727 C773.357793,683.009727 772.91875,683.077402 772.503906,683.201621 L772.503906,683.201621 L772.503906,679.132812 L781,679.132812 Z M758.18752,684.767539 C759.74082,684.767539 761.00002,686.026738 761.00002,687.580039 C761.00002,689.13334 759.74082,690.392539 758.18752,690.392539 C756.634219,690.392539 755.37502,689.13334 755.37502,687.580039 C755.37502,686.026738 756.634219,684.767539 758.18752,684.767539 Z M770.746094,668 L770.746094,684.194141 C769.954219,684.911969 769.415408,685.903278 769.278105,687.017244 L769.254883,687.257773 L762.745234,687.257773 C762.579121,684.887656 760.599121,683.009727 758.18752,683.009727 C755.84894,683.009727 753.916256,684.775567 753.649859,687.043703 L753.629805,687.257773 L751,687.257773 L751,679.757773 L764.78793,679.757773 L766.540176,673.625 L751,673.625 L751,668 L770.746094,668 Z M764.209785,675.382812 L763.46207,677.999961 L751,677.999961 L751,675.382812 L764.209785,675.382812 Z" id="path-3"></path>
    </defs>
    <g id="Webdesign" stroke="none" stroke-width="1" fill="none" fill-rule="evenodd">
        <g id="Jak-reklamovat" transform="translate(-1011.000000, -919.000000)" fill-rule="nonzero">
            <g id="Combined-Shape" transform="translate(260.000000, 251.000000)">
                <use fill="url(#linearGradient-1)" xlink:href="#path-3"></use>
                <use fill="url(#linearGradient-2)" xlink:href="#path-3"></use>
            </g>
        </g>
    </g>
</svg>