<?xml version="1.0" encoding="UTF-8"?>
<svg width="23px" height="29px" viewBox="0 0 23 29" version="1.1" xmlns="http://www.w3.org/2000/svg" xmlns:xlink="http://www.w3.org/1999/xlink">
    <title>download-arrow</title>
    <defs>
        <linearGradient x1="18.6586325%" y1="1.59527972%" x2="82.3742885%" y2="100%" id="linearGradient-1">
            <stop stop-color="#505961" offset="0%"></stop>
            <stop stop-color="#2A2F33" offset="100%"></stop>
        </linearGradient>
    </defs>
    <g id="Webdesign" stroke="none" stroke-width="1" fill="none" fill-rule="evenodd" opacity="0.984">
        <g id="Jak-reklamovat" transform="translate(-1178.000000, -632.000000)" fill="url(#linearGradient-1)">
            <g id="Vrchní-info" transform="translate(260.000000, 251.000000)">
                <g id="Group-9" transform="translate(716.000000, 171.000000)">
                    <g id="download-arrow" transform="translate(202.000000, 210.000000)">
                        <path d="M10.3837854,0 C11.1281242,0 11.8725188,0 12.6168576,0 C13.0577218,0.190337578 13.3275328,0.525298399 13.4263462,1.00488246 C13.4449365,6.04788509 13.4635827,11.0909436 13.482173,16.1339462 C14.8499297,14.7661895 16.2176864,13.3984328 17.5854431,12.0306761 C18.0931878,11.7575156 18.5769829,11.7947521 19.03694,12.1423297 C19.5339102,12.601896 19.9898477,13.09507 20.4046966,13.62174 C20.5406349,14.0300014 20.5034543,14.4207891 20.293043,14.7941029 C17.6040334,17.4831125 14.9150796,20.1720664 12.2260699,22.861076 C11.710007,23.2018986 11.2075657,23.1832525 10.7187463,22.8052492 C8.06697309,20.153476 5.41519993,17.5017029 2.76342677,14.8499297 C2.4589083,14.3942713 2.44029565,13.9290108 2.70759996,13.4542596 C3.16554723,12.9032491 3.67725571,12.4101309 4.24283706,11.9748493 C4.74896286,11.7819677 5.21422344,11.8564407 5.63850714,12.1981565 C6.95043702,13.5100864 8.2623669,14.8220163 9.57429678,16.1339462 C9.59288711,11.0164706 9.61153326,5.89905083 9.63012359,0.781575248 C9.78013021,0.417640875 10.0313508,0.157115606 10.3837854,0 Z M22.1632409,28.5833233 C15.0546466,28.5833233 7.94599641,28.5833233 0.837402051,28.5833233 C0.489785294,28.449674 0.238564679,28.2077206 0.0837402051,27.8575749 C-0.0279134017,27.0759996 -0.0279134017,26.2944244 0.0837402051,25.5128492 C0.20470014,25.1685653 0.437308099,24.9359908 0.781575248,24.8150141 C4.36180398,24.7503667 7.94404247,24.7224533 11.5282349,24.7312739 C15.0942836,24.7223416 18.657876,24.750255 22.2190678,24.8150141 C22.5633516,24.9359908 22.7959261,25.1685653 22.9169028,25.5128492 C23.0040484,26.1986814 23.0226388,26.8871934 22.9727296,27.5784409 C22.8734137,28.0588863 22.6036028,28.3938472 22.1632409,28.5833233 Z" id="Combined-Shape"></path>
                    </g>
                </g>
            </g>
        </g>
    </g>
</svg>