<?xml version="1.0" encoding="UTF-8"?>
<svg width="35px" height="35px" viewBox="0 0 35 35" version="1.1" xmlns="http://www.w3.org/2000/svg" xmlns:xlink="http://www.w3.org/1999/xlink">
    <title>Combined Shape</title>
    <g id="Webdesign" stroke="none" stroke-width="1" fill="none" fill-rule="evenodd" opacity="0.969">
        <g id="Jak-reklamovat" transform="translate(-382.000000, -1044.000000)" fill="#00A1C8">
            <g id="Vrchní-info" transform="translate(260.000000, 251.000000)">
                <g id="Group-9" transform="translate(63.000000, 171.000000)">
                    <g id="Group-4" transform="translate(39.000000, 601.000000)">
                        <path d="M39.0722656,21 C44.5678809,21.656114 48.9087012,24.2309854 52.0947266,28.7246094 C53.7231152,31.2286816 54.6914941,33.9630566 55,36.9277344 L55,40.0722656 L55,40.0722656 C54.3438867,45.5678809 51.7689941,49.9087012 47.2753906,53.0947266 C44.7713184,54.7231152 42.0369434,55.6914941 39.0722656,56 L35.9277344,56 L35.9277344,56 C30.4321191,55.3438867 26.0912715,52.7689941 22.9052734,48.2753906 C21.2768916,45.77125 20.3084642,43.036875 20,40.0722656 L20,36.9277344 L20,36.9277344 C20.6560832,31.4321875 23.2309512,27.0913467 27.7246094,23.9052734 C30.2286816,22.2769121 32.9630566,21.3084867 35.9277344,21 L39.0722656,21 L39.0722656,21 Z M36.7480469,23.4609375 C31.4869727,23.906627 27.4424219,26.3447803 24.6142578,30.7753906 C21.7431641,35.9251074 21.7431641,41.0748926 24.6142578,46.2246094 C27.6233691,50.8806348 31.9185937,53.3187402 37.5,53.5390625 C43.0814063,53.3187402 47.3766309,50.8806348 50.3857422,46.2246094 C53.2568359,41.0748926 53.2568359,35.9251074 50.3857422,30.7753906 C47.1997168,25.8604678 42.6538184,23.4223145 36.7480469,23.4609375 Z M38.7304688,35.7998047 C39.0255762,35.9580566 39.2192383,36.1973145 39.3115234,36.5175781 C39.3571191,39.5481543 39.3571191,42.5787988 39.3115234,45.609375 C39.0674805,46.1483203 38.6459766,46.4559375 38.046875,46.5322266 C37.4004004,46.6358594 36.785166,46.5447363 36.2011719,46.2587891 C36.0275391,46.1080566 35.8794043,45.9371582 35.7568359,45.7460938 C35.7112402,42.6015625 35.7112402,39.4570313 35.7568359,36.3125 C36.0442871,35.8793066 36.4430273,35.6287012 36.953125,35.5605469 C37.5644629,35.5103711 38.1568652,35.5901465 38.7304688,35.7998047 Z M39.2431641,31.1171875 C39.5702637,32.5556738 38.989209,33.3531543 37.5,33.5097656 C35.905791,33.3258789 35.3475684,32.4827344 35.8251953,30.9804687 C36.127959,30.5617676 36.5266992,30.2883301 37.0214844,30.1601562 C37.9738672,30.0043652 38.7144727,30.3233984 39.2431641,31.1171875 Z" id="Combined-Shape"></path>
                    </g>
                </g>
            </g>
        </g>
    </g>
</svg>