<?xml version="1.0" encoding="UTF-8"?>
<svg width="37px" height="37px" viewBox="0 0 37 37" version="1.1" xmlns="http://www.w3.org/2000/svg" xmlns:xlink="http://www.w3.org/1999/xlink">
    <title>Fill 1</title>
    <g id="Webdesign" stroke="none" stroke-width="1" fill="none" fill-rule="evenodd">
        <g id="Jak-reklamovat" transform="translate(-615.000000, -437.000000)" fill="#FFFFFF" stroke="#FFFFFF" stroke-width="0.5">
            <g id="Vrchní-info" transform="translate(260.000000, 251.000000)">
                <g id="Group-9" transform="translate(63.000000, 171.000000)">
                    <path d="M318.087891,23.5878906 C317.035156,23.9296875 316.522461,24.6542969 316.549805,25.7753906 C316.823242,26.9580078 317.561523,27.5185547 318.771484,27.4501953 C319.981445,27.1289062 320.514648,26.3427734 320.37793,25.0917969 C320.008789,23.9980469 319.243164,23.4990234 318.087891,23.5878906 M317.882812,21.46875 C319.954102,21.3251953 321.423828,22.1933594 322.291992,24.0664062 C322.907227,26.1923828 322.298828,27.8671875 320.480469,29.0908203 C318.245117,30.0683594 316.413086,29.5761719 314.977539,27.6210938 C314.123047,25.9736328 314.232422,24.4013672 315.319336,22.9042969 C316.016602,22.1318359 316.871094,21.6533203 317.882812,21.46875 M316.037109,18.0507812 C320.220703,18.2353516 323.242188,20.1972656 325.094727,23.9296875 C326.516602,27.5664063 326.058594,30.9365234 323.727539,34.046875 C320.890625,37.2460938 317.390625,38.3056641 313.234375,37.2255859 C312.407227,36.9589844 311.621094,36.6035156 310.875977,36.1660156 C309.385742,37.5878906 307.916016,39.0371094 306.466797,40.5068359 C305.393555,40.5410156 304.327148,40.5546875 303.253906,40.5410156 C303.267578,41.6142578 303.253906,42.6806641 303.219727,43.7539063 C302.864258,44.109375 302.515625,44.4580078 302.160156,44.8134766 C300.998047,44.8476563 299.835938,44.8613281 298.673828,44.8476563 C298.749023,45.9892578 298.755859,47.1240234 298.708008,48.265625 C298.489258,48.484375 298.277344,48.6962891 298.058594,48.9150391 C297.053711,48.9492188 296.055664,48.9628906 295.050781,48.9492188 C295.037109,47.9443359 295.050781,46.9462891 295.084961,45.9414063 L307.799805,33.2265625 C307.847656,33.1582031 307.847656,33.0898438 307.799805,33.0214844 C305.803711,29.4873047 305.851562,25.9736328 307.936523,22.4941406 C309.912109,19.6982422 312.612305,18.2216797 316.037109,18.0507812 M314.875,16 L317.404297,16 C322.49707,16.7724609 325.880859,19.6025391 327.555664,24.4765625 C327.74707,25.1875 327.890625,25.8916016 328,26.5957031 L328,29.1933594 C327.200195,34.2246094 324.397461,37.5810547 319.591797,39.2763672 C316.761719,40.0761719 313.993164,39.9052734 311.286133,38.7636719 C309.980469,40.0009766 308.688477,41.265625 307.423828,42.5576172 C306.74707,42.6533203 306.063477,42.6875 305.373047,42.6601562 C305.386719,43.3232422 305.373047,43.9794922 305.338867,44.6425781 C304.573242,45.4082031 303.814453,46.1669922 303.048828,46.9326172 C302.317383,46.9667969 301.592773,46.9804688 300.861328,46.9667969 C300.875,47.6982422 300.861328,48.4228516 300.827148,49.1542969 C300.211914,49.7626953 299.603516,50.3779297 299.015625,51 L293,51 L293,44.984375 C297.074219,40.9443359 301.141602,36.8837891 305.202148,32.8164062 C304.99707,32.1601562 304.791992,31.5039062 304.586914,30.8339844 C303.513672,25.6386719 305.051758,21.4072266 309.201172,18.1533203 C310.916992,16.9707031 312.810547,16.2529297 314.875,16" id="Fill-1"></path>
                </g>
            </g>
        </g>
    </g>
</svg>