<?xml version="1.0" encoding="UTF-8"?>
<svg width="30px" height="24px" viewBox="0 0 30 24" version="1.1" xmlns="http://www.w3.org/2000/svg" xmlns:xlink="http://www.w3.org/1999/xlink">
    <title>black-back-closed-envelope-shape</title>
    <defs>
        <linearGradient x1="1.59527972%" y1="19.86223%" x2="100%" y2="81.1310238%" id="linearGradient-1">
            <stop stop-color="#505961" offset="0%"></stop>
            <stop stop-color="#2A2F33" offset="100%"></stop>
        </linearGradient>
    </defs>
    <g id="Webdesign" stroke="none" stroke-width="1" fill="none" fill-rule="evenodd" opacity="0.99">
        <g id="Jak-reklamovat" transform="translate(-536.000000, -666.000000)" fill="url(#linearGradient-1)">
            <g id="Vrchní-info" transform="translate(260.000000, 251.000000)">
                <g id="Group-9" transform="translate(63.000000, 171.000000)">
                    <g id="Group-3" transform="translate(213.000000, 242.000000)">
                        <g id="black-back-closed-envelope-shape" transform="translate(0.000000, 2.000000)">
                            <path d="M20.5664062,14.414064 C23.4269531,17.245314 26.2784766,20.0871108 29.1210938,22.9394546 C28.6450195,23.3823062 28.0786523,23.6166812 27.421875,23.6425796 C19.1406445,23.6816616 10.8593555,23.6816616 2.578125,23.6425796 C1.92136523,23.6166812 1.35496289,23.3823062 0.87890625,22.9394546 C3.72273633,20.1053921 6.55476562,17.2635952 9.375,14.414064 C10.1240039,14.9160366 10.8662109,15.4336538 11.6015625,15.9667983 C12.339375,16.4138101 13.1206055,16.7653726 13.9453125,17.0214858 C15.0669141,17.2740835 16.1411719,17.1373843 17.1679688,16.6113296 C18.3706055,15.9810952 19.5033984,15.2486733 20.5664062,14.414064 Z M0,7.61718896 C0.441387891,8.06836084 0.910136719,8.48830225 1.40625,8.87695459 C3.45967969,10.2549038 5.49093164,11.6611538 7.5,13.0957046 C5.02961133,15.6344546 2.52960937,18.1442007 0,20.6250015 L0,7.61718896 L0,7.61718896 Z M30,7.61718896 L30,20.6250015 L30,20.6250015 C27.4703906,18.1442007 24.9703711,15.6344546 22.5,13.0957046 C24.7059375,11.5542788 26.9129883,10.0113296 29.1210938,8.46679834 C29.4063867,8.17166162 29.6993555,7.88847803 30,7.61718896 Z M27.421875,0.0292983398 C28.7545313,0.180921387 29.6138672,0.893813965 30,2.16797021 L30,3.45703271 L30,3.45703271 C29.5735547,4.95029443 28.7337305,6.17103662 27.4804688,7.11914209 C24.1694531,9.409396 20.8686914,11.714064 17.578125,14.0332046 C17.0666602,14.3866421 16.5198047,14.6796108 15.9375,14.9121108 C15.2002148,15.1333608 14.4775781,15.0942788 13.7695312,14.7949233 C13.246582,14.5253335 12.73875,14.2323647 12.2460938,13.9160171 C8.99460938,11.6164468 5.73290625,9.33129053 2.4609375,7.06054834 C1.30416211,6.1497085 0.483851367,5.00713037 0,3.63281396 L0,2.40234521 L0,2.40234521 C0.143223047,1.65730811 0.494785547,1.02254443 1.0546875,0.49804834 C1.51061719,0.178899902 2.01843164,0.0226479492 2.578125,0.0292983398 C10.8593555,-0.00976611328 19.1406445,-0.00976611328 27.421875,0.0292983398 Z" id="Combined-Shape"></path>
                        </g>
                    </g>
                </g>
            </g>
        </g>
    </g>
</svg>